<?xml version="1.0" standalone="no"?><!DOCTYPE svg PUBLIC "-//W3C//DTD SVG 1.1//EN" "http://www.w3.org/Graphics/SVG/1.1/DTD/svg11.dtd"><svg width="200" height="200" viewBox="0 0 200 200" version="1.1" xmlns="http://www.w3.org/2000/svg" xmlns:xlink="http://www.w3.org/1999/xlink"><defs><style type="text/css"><![CDATA[
@font-face { font-family: ifont; src: url("//at.alicdn.com/t/font_1442373896_4754455.eot?#iefix") format("embedded-opentype"), url("//at.alicdn.com/t/font_1442373896_4754455.woff") format("woff"), url("//at.alicdn.com/t/font_1442373896_4754455.ttf") format("truetype"), url("//at.alicdn.com/t/font_1442373896_4754455.svg#ifont") format("svg"); }

]]></style></defs><g class="transform-group"><g transform="scale(0.1953125, 0.1953125)"><path d="M833.37728 357.44256 833.37728 300.8256c0-29.62432-22.38464-53.63712-49.9968-53.63712l-44.00128 0c-25.66656-24.4736-74.82368-43.97568-136.0896-53.90848l0-58.47552c8.31488-4.81792 13.1072-10.4192 13.1072-16.40448l-0.00512-43.33568c0.00512-17.9456-42.86464-32.50176-95.74912-32.50176l-10.63936 0c-52.87936 0-95.74912 14.55104-95.744 32.50176l-0.00512 43.33056c0.00512 5.9904 4.79232 11.58656 13.1072 16.4096l-0.00512 57.0624c-65.55648 9.4208-118.4 29.62944-145.34656 55.3216l-34.7392 0c-27.61728 0-50.00192 24.0128-49.9968 53.63712l-0.00512 56.61184c0 16.1792 6.71232 30.65856 17.27488 40.49408l-0.00512 58.69056c-10.56256 9.83552-17.27488 24.30976-17.26976 40.49408l0 56.61184c0 16.1792 6.71232 30.65856 17.28 40.49408l0 232.59648c-13.22496 9.6512-21.90336 25.91744-21.90336 44.35968l0 56.61184c0 29.62432 22.38976 53.64224 49.9968 53.63712l536.09984 0c27.61216 0 50.00192-24.0128 49.9968-53.63712l0-56.61184c0.00512-13.66528-4.80256-26.09664-12.6464-35.56864l0-241.39776c10.56256-9.8304 17.27488-24.30464 17.27488-40.48896l0-56.61184c0-16.18432-6.7072-30.65856-17.27488-40.48896l0-58.69568C826.67008 388.096 833.37728 373.62176 833.37728 357.44256zM741.54496 482.41664c-6.07232-25.6-106.24512-76.8-201.86624-5.12s-258.0224 17.06496-258.0224-27.30496c0 0-1.51552-104.10496-1.51552-133.12 7.58784-25.6 94.1568-81.94048 236.91776-80.21504 142.76096 1.72544 224.4864 68.26496 224.4864 92.16C741.54496 352.70656 741.54496 431.21664 741.54496 482.41664z" fill="#fff"></path></g></g></svg>