<?xml version="1.0" standalone="no"?><!DOCTYPE svg PUBLIC "-//W3C//DTD SVG 1.1//EN" "http://www.w3.org/Graphics/SVG/1.1/DTD/svg11.dtd"><svg width="200" height="200" viewBox="0 0 200 200" version="1.1" xmlns="http://www.w3.org/2000/svg" xmlns:xlink="http://www.w3.org/1999/xlink"><defs><style type="text/css"><![CDATA[
@font-face { font-family: ifont; src: url("//at.alicdn.com/t/font_1442373896_4754455.eot?#iefix") format("embedded-opentype"), url("//at.alicdn.com/t/font_1442373896_4754455.woff") format("woff"), url("//at.alicdn.com/t/font_1442373896_4754455.ttf") format("truetype"), url("//at.alicdn.com/t/font_1442373896_4754455.svg#ifont") format("svg"); }

]]></style></defs><g class="transform-group"><g transform="scale(0.1953125, 0.1953125)"><path d="M412.123366 0l207.683847 0c23.621752 0 42.947041 19.325289 42.947041 42.947041l0 0c0 23.621752-19.325289 42.947041-42.947041 42.947041L412.123366 85.894081c-23.621752 0-42.947041-19.325289-42.947041-42.947041l0 0C369.176325 19.325289 388.501614 0 412.123366 0zM480.350956 1024l63.292227 0 131.683938 0c35.291952 0 64.077665-28.785713 64.077665-64.077665L739.404785 560.22237c0-9.92348-1.910841-91.80245-6.154551-100.764648-56.293623-119.017287-96.737813-201.283114-109.058638-353.921832-0.896806-11.11336-10.427567-22.179828-21.294745-19.641809l-56.563251 13.264522c-23.322816 5.474619-46.768724 5.134654-68.667201 0l-56.563251-13.264522c-10.861317-2.549742-20.392078 8.528449-21.288884 19.641809C387.487579 258.174608 347.037527 340.440435 290.749765 459.457722 286.506056 468.41992 284.595215 550.310612 284.595215 560.22237l0 399.699966c0 35.291952 28.785713 64.077665 64.077665 64.077665L480.350956 1024z" fill="#fff"></path></g></g></svg>