<?xml version="1.0" standalone="no"?><!DOCTYPE svg PUBLIC "-//W3C//DTD SVG 1.1//EN" "http://www.w3.org/Graphics/SVG/1.1/DTD/svg11.dtd"><svg width="200" height="200" viewBox="0 0 200 200" version="1.1" xmlns="http://www.w3.org/2000/svg" xmlns:xlink="http://www.w3.org/1999/xlink"><defs><style type="text/css"><![CDATA[
@font-face { font-family: ifont; src: url("//at.alicdn.com/t/font_1442373896_4754455.eot?#iefix") format("embedded-opentype"), url("//at.alicdn.com/t/font_1442373896_4754455.woff") format("woff"), url("//at.alicdn.com/t/font_1442373896_4754455.ttf") format("truetype"), url("//at.alicdn.com/t/font_1442373896_4754455.svg#ifont") format("svg"); }

]]></style></defs><g class="transform-group"><g transform="scale(0.1953125, 0.1953125)"><path d="M783.879154 569.31845l-26.617218 0c-11.407817 15.098883-19.012006 30.196743-30.419823 45.295626l38.024012 0 0 3.774977 106.469893 188.733479-323.211263 0c-11.407817 15.098883-22.814612 22.647813-26.617218 26.422789-3.801583 3.773953-7.604188 7.54893-11.406794 7.54893-3.803629 0-7.605212-3.774977-11.407817-7.54893l-26.618241-26.422789L141.261281 807.122531l3.801583-7.549953 87.457888-184.958502 38.024012 0c-11.407817-15.098883-22.814612-30.196743-34.221406-45.295626l-26.618241 0L61.408605 848.64318l395.45668 0c15.210423 15.098883 30.419823 33.971719 38.025035 41.521672 3.802606 3.774977 7.605212 7.54893 7.605212 11.323906 3.801583 3.774977 3.801583 3.774977 3.801583 3.774977s3.803629 0 3.803629-3.774977c3.802606-3.774977 15.210423-15.098883 30.419823-30.197766l19.013029-18.872836 399.26031 0L783.879154 569.31845zM392.05828 378.367467c0 56.619532 45.630247 105.692181 106.46887 105.692181 57.038064 0 106.469893-45.296649 106.469893-105.692181 0-56.618509-45.630247-105.690134-106.469893-105.690134C441.491133 272.677333 392.05828 317.973982 392.05828 378.367467zM563.169403 378.367467c0 33.972742-26.617218 64.168462-64.642253 64.168462-34.221406 0-64.642253-26.421766-64.642253-64.168462 0-33.971719 26.618241-64.168462 64.642253-64.168462C532.748556 314.199005 563.169403 340.621794 563.169403 378.367467zM736.212528 281.645588l-93.288686 0c-13.541411 0-24.518417 10.897188-24.518417 24.338315l0 10.459213c0 13.44215 10.977006 24.339338 24.518417 24.339338l94.835925 0 2.462075 94.110401c0.352017 13.437034 11.610432 24.046672 25.146727 23.697725l10.533914-0.271176c13.535271-0.347924 24.223704-11.524474 23.87271-24.961508l-2.423189-92.575442 93.28971 0c13.540388 0 24.517393-10.898211 24.517393-24.339338l0-10.459213c0-13.44215-10.977006-24.338315-24.517393-24.338315l-94.836949 0-2.462075-94.111424c-0.352017-13.43601-11.609409-24.046672-25.146727-23.697725l-10.532891 0.271176c-13.536294 0.348947-24.224728 11.524474-23.873734 24.962531L736.212528 281.645588zM498.529197 754.276952c50.65468-0.00614 112.611777-76.759221 142.277424-109.529579 29.223578-32.281217 56.553017-66.88534 79.259158-104.003725 6.888897-11.260461 23.624047-46.65253 5.67321-56.243979-23.526833-12.57234-61.242829 59.185984-70.792323 72.535013-37.651528 52.638871-93.101421 118.620631-152.615886 148.171668l-3.803629 0C449.095321 678.783561 266.576381 508.923942 266.576381 384.358925c0-124.563994 106.469893-222.706221 231.950769-222.706221 53.92619 0 104.33016 18.833951 144.292314 49.888224 19.195178-6.258541 31.816636-19.780509 13.291724-48.364521-44.463678-29.497824-98.5669-46.818305-157.584038-46.818305-152.098093 0-277.579993 120.789017-277.579993 268.001847C220.947158 539.121707 452.898951 754.276952 498.529197 754.276952z" fill="#fff"></path></g></g></svg>