<?xml version="1.0" standalone="no"?><!DOCTYPE svg PUBLIC "-//W3C//DTD SVG 1.1//EN" "http://www.w3.org/Graphics/SVG/1.1/DTD/svg11.dtd"><svg width="200" height="200" viewBox="0 0 200 200" version="1.1" xmlns="http://www.w3.org/2000/svg" xmlns:xlink="http://www.w3.org/1999/xlink"><defs><style type="text/css"><![CDATA[
@font-face { font-family: ifont; src: url("//at.alicdn.com/t/font_1442373896_4754455.eot?#iefix") format("embedded-opentype"), url("//at.alicdn.com/t/font_1442373896_4754455.woff") format("woff"), url("//at.alicdn.com/t/font_1442373896_4754455.ttf") format("truetype"), url("//at.alicdn.com/t/font_1442373896_4754455.svg#ifont") format("svg"); }

]]></style></defs><g class="transform-group"><g transform="scale(0.1953125, 0.1953125)"><path d="M512.561283 228.603535c-73.42529 0-133.161812 59.736523-133.161812 133.160789 0 73.426313 59.736523 133.161812 133.161812 133.161812 73.423243 0 133.159766-59.735499 133.159766-133.161812C645.721049 288.340057 585.984526 228.603535 512.561283 228.603535L512.561283 228.603535zM512.56333 3.069919c-280.296871 0-507.523035 227.224118-507.523035 507.522012 0 280.296871 227.225141 507.522012 507.523035 507.522012 280.295847 0 507.518942-227.226165 507.518942-507.522012C1020.082272 230.294037 792.859177 3.069919 512.56333 3.069919L512.56333 3.069919zM748.409826 776.361947c-13.859659 0-25.098631-11.235902-25.098631-25.096585 0-114.958218-92.572372-205.01121-210.749912-205.01121-118.178563 0-210.752981 90.052992-210.752981 205.01121 0 13.860682-11.234879 25.096585-25.096585 25.096585-13.858636 0-25.095561-11.235902-25.095561-25.096585 0-69.509097 27.252691-134.12679 76.733639-181.944865 24.310685-23.489994 52.711526-41.732473 83.715657-54.135968-10.386558-6.835685-20.161179-14.772448-29.155017-23.769356-34.631752-34.629705-53.704133-80.676437-53.704133-129.650849s19.071358-95.019097 53.704133-129.651872c34.627658-34.630728 80.673367-53.702086 129.649825-53.702086 48.972365 0 95.018074 19.070334 129.651872 53.702086 34.630728 34.631752 53.701063 80.675414 53.701063 129.651872 0 48.974411-19.070334 95.021144-53.701063 129.650849-9.001001 8.995885-18.769482 16.933671-29.158087 23.769356 31.004131 12.403494 59.407018 30.641881 83.714633 54.135968 49.482995 47.818075 76.734662 112.435769 76.734662 181.944865C773.506411 765.125021 762.267439 776.361947 748.409826 776.361947L748.409826 776.361947z" fill="#fff"></path></g></g></svg>