<?xml version="1.0" standalone="no"?><!DOCTYPE svg PUBLIC "-//W3C//DTD SVG 1.1//EN" "http://www.w3.org/Graphics/SVG/1.1/DTD/svg11.dtd"><svg width="200" height="200" viewBox="0 0 200 200" version="1.1" xmlns="http://www.w3.org/2000/svg" xmlns:xlink="http://www.w3.org/1999/xlink"><defs><style type="text/css"><![CDATA[
@font-face { font-family: ifont; src: url("//at.alicdn.com/t/font_1442373896_4754455.eot?#iefix") format("embedded-opentype"), url("//at.alicdn.com/t/font_1442373896_4754455.woff") format("woff"), url("//at.alicdn.com/t/font_1442373896_4754455.ttf") format("truetype"), url("//at.alicdn.com/t/font_1442373896_4754455.svg#ifont") format("svg"); }

]]></style></defs><g class="transform-group"><g transform="scale(0.1953125, 0.1953125)"><path d="M900.531967 772.541945c0 78.837556-195.584514 120.080889-388.787794 120.080889-193.196117 0-388.774491-41.243333-388.774491-120.080889 0-69.955258 150.657278-99.115392 215.433584-108.403942 9.613962-1.344624 18.559705 5.310959 19.937075 14.939247 1.384533 9.627265-5.306866 18.553565-14.941294 19.936051-134.910643 19.346627-185.191816 55.368028-185.191816 73.528644 0 34.600029 137.725758 84.84334 353.536942 84.84334 215.82551 0 353.551268-50.243311 353.551268-84.84334 0-18.303878-50.763151-54.519708-186.987718-73.780377-9.635451-1.364067-16.346293-10.282181-14.982226-19.911492 1.36816-9.635451 10.314926-16.276708 19.909445-14.982226C748.573043 673.112398 900.531967 702.19476 900.531967 772.541945zM437.202457 354.005616c0-41.107233 33.432437-74.546833 74.53353-74.546833 41.11542 0 74.568323 33.4396 74.568323 74.546833 0 41.10621-33.453926 74.54581-74.568323 74.54581C470.635917 428.550403 437.202457 395.110803 437.202457 354.005616zM621.542882 354.005616c0-60.537771-49.256844-109.784382-109.805872-109.784382-60.528562 0-109.770056 49.246611-109.770056 109.784382 0 60.534701 49.241494 109.785405 109.770056 109.785405C572.286038 463.789998 621.542882 414.539294 621.542882 354.005616zM511.74315 164.731832c108.422362 0 196.624193 88.200808 196.624193 196.609867 0 150.217257-152.282289 318.988078-196.768479 365.077789-44.61001-45.25674-196.458417-210.663954-196.458417-365.077789C315.140447 252.93264 403.335115 164.731832 511.74315 164.731832zM499.713162 764.175393l12.181437 11.376095 12.037151-11.526521c8.967232-8.590656 219.672118-212.576513 219.672118-402.684292 0-127.842667-104.011912-231.847415-231.861742-231.847415-127.836527 0-231.839229 104.004749-231.839229 231.847415C279.903921 556.575218 490.738767 755.786329 499.713162 764.175393z" fill="#eb4f38"></path></g></g></svg>