<?xml version="1.0" standalone="no"?><!DOCTYPE svg PUBLIC "-//W3C//DTD SVG 1.1//EN" "http://www.w3.org/Graphics/SVG/1.1/DTD/svg11.dtd"><svg width="200" height="200" viewBox="0 0 200 200" version="1.1" xmlns="http://www.w3.org/2000/svg" xmlns:xlink="http://www.w3.org/1999/xlink"><defs><style type="text/css"><![CDATA[
@font-face { font-family: ifont; src: url("//at.alicdn.com/t/font_1442373896_4754455.eot?#iefix") format("embedded-opentype"), url("//at.alicdn.com/t/font_1442373896_4754455.woff") format("woff"), url("//at.alicdn.com/t/font_1442373896_4754455.ttf") format("truetype"), url("//at.alicdn.com/t/font_1442373896_4754455.svg#ifont") format("svg"); }

]]></style></defs><g class="transform-group"><g transform="scale(0.1953125, 0.1953125)"><path d="M791.969413 175.472454 707.978487 175.472454l0-55.993269-75.410504 0c-24.249287-33.334199-68.886927-55.995315-120.569006-55.995315-51.681056 0-96.317673 22.661116-120.56696 55.995315l-75.413574 0 0 55.993269-83.991949 0c-61.84658 0-111.985514 50.139957-111.985514 111.992677l0 559.938825c0 61.851697 50.138934 111.985514 111.985514 111.985514l559.941895 0c61.84965 0 111.98756-50.133817 111.98756-111.985514L903.95595 287.465131C903.956973 225.612411 853.819063 175.472454 791.969413 175.472454zM372.015805 175.472454l62.213947 0c0-30.922267 34.819017-55.993269 77.769224-55.993269 42.951231 0 77.769224 25.069979 77.769224 55.993269l62.215994 0 0 111.992677L372.015805 287.465131 372.015805 175.472454zM847.963705 847.403956c0 30.92329-25.068955 55.995315-55.994292 55.995315L232.027517 903.399271c-30.924313 0-55.991222-25.072025-55.991222-55.995315L176.036295 287.465131c0-30.922267 25.067932-55.995315 55.991222-55.995315l83.991949 0 0 111.98756L707.978487 343.457376 707.978487 231.469815l83.990926 0c30.925337 0 55.994292 25.072025 55.994292 55.995315L847.963705 847.403956zM707.977463 735.413326 316.019467 735.413326c-15.461133 0-27.995611 12.535501-27.995611 27.999704 0 15.46011 12.533454 27.995611 27.995611 27.995611l391.957996 0c15.464203 0 27.997658-12.535501 27.997658-27.995611C735.975121 747.948827 723.441667 735.413326 707.977463 735.413326zM707.977463 455.44289 316.019467 455.44289c-15.461133 0-27.995611 12.535501-27.995611 28.001751 0 15.458063 12.533454 27.995611 27.995611 27.995611l391.957996 0c15.464203 0 27.997658-12.537548 27.997658-27.995611C735.975121 467.978391 723.441667 455.44289 707.977463 455.44289zM707.977463 595.428108 316.019467 595.428108c-15.461133 0-27.995611 12.537548-27.995611 27.999704 0 15.46011 12.533454 27.995611 27.995611 27.995611l391.957996 0c15.464203 0 27.997658-12.535501 27.997658-27.995611C735.975121 607.965655 723.441667 595.428108 707.977463 595.428108z" fill="#00bb9c"></path></g></g></svg>