<?xml version="1.0" standalone="no"?><!DOCTYPE svg PUBLIC "-//W3C//DTD SVG 1.1//EN" "http://www.w3.org/Graphics/SVG/1.1/DTD/svg11.dtd"><svg width="200" height="200" viewBox="0 0 200 200" version="1.1" xmlns="http://www.w3.org/2000/svg" xmlns:xlink="http://www.w3.org/1999/xlink"><defs><style type="text/css"><![CDATA[
@font-face { font-family: ifont; src: url("//at.alicdn.com/t/font_1442373896_4754455.eot?#iefix") format("embedded-opentype"), url("//at.alicdn.com/t/font_1442373896_4754455.woff") format("woff"), url("//at.alicdn.com/t/font_1442373896_4754455.ttf") format("truetype"), url("//at.alicdn.com/t/font_1442373896_4754455.svg#ifont") format("svg"); }

]]></style></defs><g class="transform-group"><g transform="scale(0.1953125, 0.1953125)"><path d="M914.366555 821.111127l-67.060325 0c0 49.297776-40.034808 89.25993-89.416496 89.25993-49.382711 0-89.415472-39.962154-89.415472-89.25993L377.876792 821.111127c0 49.297776-40.032762 89.25993-89.414449 89.25993s-89.414449-39.962154-89.414449-89.25993c-74.074066 0-134.122697-59.945277-134.122697-133.889383L64.925197 419.440931c0-73.944106 60.048631-133.88836 134.122697-133.88836l223.537146 0 0-133.889383c0-24.648376 20.015869-44.629453 44.707225-44.629453l447.075315 0c24.690332 0 44.707225 19.981077 44.707225 44.629453l0 624.818485C959.07378 801.129027 939.056887 821.111127 914.366555 821.111127zM914.366555 196.292642c0-24.648376-20.017916-44.62843-44.707225-44.62843L511.999488 151.664212c-24.692379 0-44.709271 19.980054-44.709271 44.62843l0 133.889383L199.04687 330.182025c-63.787792 9.147334-84.265172 30.742165-89.415472 89.258906l0 267.780813c9.397021 81.761142 60.048631 89.25993 134.122697 89.25993 0 49.296753-4.674463 89.258906 44.707225 89.258906s44.707225-39.962154 44.707225-89.258906l380.012943 0c0 49.296753-4.674463 89.258906 44.707225 89.258906 49.381687 0 44.706201-39.962154 44.706201-89.258906l67.063395 0c24.690332 0 44.707225-19.981077 44.707225-44.630477L914.365532 196.292642zM464.994941 597.98842 424.900781 597.98842 156.686087 597.98842c-1.286296 0-2.329045-1.041726-2.329045-2.328022l0-40.021505c0-1.287319 1.042749-2.328022 2.329045-2.328022l265.886673 0L422.57276 377.143593c0-1.285273 1.042749-2.328022 2.328022-2.328022l40.09416 0c1.284249 0 2.328022 1.042749 2.328022 2.328022l0 178.4953 0 40.021505C467.323986 596.947717 466.280214 597.98842 464.994941 597.98842z" fill="#888"></path></g></g></svg>