<?xml version="1.0" standalone="no"?><!DOCTYPE svg PUBLIC "-//W3C//DTD SVG 1.1//EN" "http://www.w3.org/Graphics/SVG/1.1/DTD/svg11.dtd"><svg width="200" height="200" viewBox="0 0 200 200" version="1.1" xmlns="http://www.w3.org/2000/svg" xmlns:xlink="http://www.w3.org/1999/xlink"><defs><style type="text/css"><![CDATA[
@font-face { font-family: ifont; src: url("//at.alicdn.com/t/font_1442373896_4754455.eot?#iefix") format("embedded-opentype"), url("//at.alicdn.com/t/font_1442373896_4754455.woff") format("woff"), url("//at.alicdn.com/t/font_1442373896_4754455.ttf") format("truetype"), url("//at.alicdn.com/t/font_1442373896_4754455.svg#ifont") format("svg"); }

]]></style></defs><g class="transform-group"><g transform="scale(0.1953125, 0.1953125)"><path d="M665.6 339.2 979.2 339.2 979.2 384 665.6 384 665.6 339.2 665.6 339.2ZM38.4 339.2 780.8 339.2 780.8 384 38.4 384 32 345.6 38.4 339.2ZM921.6 953.6 108.8 953.6c-51.2 0-89.6-38.4-89.6-89.6L19.2 230.4c0-51.2 38.4-89.6 89.6-89.6l812.8 0c51.2 0 89.6 38.4 89.6 89.6l0 633.6C1017.6 915.2 972.8 953.6 921.6 953.6L921.6 953.6zM108.8 179.2c-25.6 0-51.2 25.6-51.2 51.2l0 633.6c0 25.6 25.6 51.2 51.2 51.2l812.8 0c25.6 0 51.2-25.6 51.2-51.2L972.8 230.4c0-25.6-25.6-51.2-51.2-51.2L166.4 179.2 108.8 179.2 108.8 179.2zM748.8 473.6c-6.4-6.4-19.2-6.4-25.6 0l-243.2 262.4L345.6 601.6C339.2 595.2 326.4 595.2 320 601.6 313.6 608 313.6 620.8 320 627.2l147.2 147.2c0 0 0 0 0 0 0 0 0 0 0 0 0 0 0 0 6.4 0 0 0 0 0 0 0 0 0 6.4 0 6.4 0 0 0 6.4 0 6.4 0 0 0 0 0 0 0 0 0 0 0 6.4 0 0 0 0 0 0 0 0 0 0 0 0 0l256-275.2C755.2 492.8 755.2 480 748.8 473.6L748.8 473.6 748.8 473.6z" fill="#888"></path></g></g></svg>