<?xml version="1.0" standalone="no"?><!DOCTYPE svg PUBLIC "-//W3C//DTD SVG 1.1//EN" "http://www.w3.org/Graphics/SVG/1.1/DTD/svg11.dtd"><svg width="200" height="200" viewBox="0 0 200 200" version="1.1" xmlns="http://www.w3.org/2000/svg" xmlns:xlink="http://www.w3.org/1999/xlink"><defs><style type="text/css"><![CDATA[
@font-face { font-family: ifont; src: url("//at.alicdn.com/t/font_1442373896_4754455.eot?#iefix") format("embedded-opentype"), url("//at.alicdn.com/t/font_1442373896_4754455.woff") format("woff"), url("//at.alicdn.com/t/font_1442373896_4754455.ttf") format("truetype"), url("//at.alicdn.com/t/font_1442373896_4754455.svg#ifont") format("svg"); }

]]></style></defs><g class="transform-group"><g transform="scale(0.1953125, 0.1953125)"><path d="M27.3 624.6l399.4 0c17.1 0 27.3-13.7 27.3-27.3 0-17.1-13.7-27.3-27.3-27.3l-399.4 0C13.7 566.6 0 580.3 0 593.9 0 611 13.7 624.6 27.3 624.6zM27.3 454l399.4 0c17.1 0 27.3-13.7 27.3-27.3 0-17.1-13.7-27.3-27.3-27.3L27.3 399.4C13.7 395.9 0 409.6 0 423.3 0 440.3 13.7 454 27.3 454zM85.3 283.3l399.4 0c17.1 0 27.3-13.7 27.3-27.3 0-17.1-13.7-27.3-27.3-27.3L85.3 228.7C68.3 225.3 58 238.9 58 252.6 58 269.7 68.3 283.3 85.3 283.3zM1020.6 553 795.3 235.5c-6.8-6.8-13.7-6.8-20.5-6.8L655.4 228.7 655.4 112.6c0-17.1-13.7-27.3-27.3-27.3l-457.4 0c-17.1 0-27.3 13.7-27.3 27.3s10.2 27.3 27.3 27.3l426.7 0 0 85.3 0 368.6c0 17.1 13.7 27.3 27.3 27.3L966 621.1l0 198-61.4 0c-13.7-64.9-71.7-112.6-139.9-112.6s-126.3 47.8-139.9 112.6L392.5 819.1c-13.7-64.9-71.7-112.6-139.9-112.6s-126.3 47.8-139.9 112.6L27.3 819.1C10.2 819.2 0 832.9 0 846.5c0 17.1 13.7 27.3 27.3 27.3l88.7 0c13.7 64.9 71.7 112.6 139.9 112.6s126.3-47.8 139.9-112.6l232.1 0c13.7 64.9 71.7 112.6 139.9 112.6s126.3-47.8 139.9-112.6l88.7 0c17.1 0 27.3-13.7 27.3-27.3L1023.7 563.2C1024 559.8 1020.6 556.4 1020.6 553zM256 935.3c-47.8 0-85.3-37.5-85.3-85.3 0-47.8 37.5-85.3 85.3-85.3s85.3 37.5 85.3 85.3S303.8 935.3 256 935.3zM768 935.3c-47.8 0-85.3-37.5-85.3-85.3 0-47.8 37.5-85.3 85.3-85.3s85.3 37.5 85.3 85.3S815.8 935.3 768 935.3zM761.2 283.3l201.4 283.3L655.4 566.6 655.4 283.3 761.2 283.3z" fill="#888"></path></g></g></svg>