<?xml version="1.0" standalone="no"?><!DOCTYPE svg PUBLIC "-//W3C//DTD SVG 1.1//EN" "http://www.w3.org/Graphics/SVG/1.1/DTD/svg11.dtd"><svg width="200" height="200" viewBox="0 0 200 200" version="1.1" xmlns="http://www.w3.org/2000/svg" xmlns:xlink="http://www.w3.org/1999/xlink"><defs><style type="text/css"><![CDATA[
@font-face { font-family: ifont; src: url("//at.alicdn.com/t/font_1442373896_4754455.eot?#iefix") format("embedded-opentype"), url("//at.alicdn.com/t/font_1442373896_4754455.woff") format("woff"), url("//at.alicdn.com/t/font_1442373896_4754455.ttf") format("truetype"), url("//at.alicdn.com/t/font_1442373896_4754455.svg#ifont") format("svg"); }

]]></style></defs><g class="transform-group"><g transform="scale(0.1953125, 0.1953125)"><path d="M512 554.666667c-38.4 0-72.533333-12.8-102.4-29.866667C337.066667 477.866667 298.666667 379.733333 298.666667 256c0-119.466667 93.866667-213.333333 213.333333-213.333333s213.333333 93.866667 213.333333 213.333333c0 123.733333-38.4 221.866667-110.933333 268.8C584.533333 541.866667 550.4 554.666667 512 554.666667zM512 128c-72.533333 0-128 55.466667-128 128 0 93.866667 25.6 166.4 72.533333 196.266667 34.133333 21.333333 76.8 21.333333 110.933333 0C614.4 422.4 640 349.866667 640 256 640 183.466667 584.533333 128 512 128zM512 981.333333c-98.133333 0-426.666667-12.8-426.666667-170.666667 0-157.866667 115.2-213.333333 243.2-251.733333C337.066667 554.666667 371.2 541.866667 384 477.866667l85.333333 17.066667c-12.8 76.8-55.466667 123.733333-115.2 145.066667C226.133333 682.666667 170.666667 716.8 170.666667 810.666667c0 46.933333 179.2 85.333333 341.333333 85.333333 162.133333 0 341.333333-38.4 341.333333-85.333333 0-93.866667-55.466667-128-183.466667-174.933333-59.733333-21.333333-98.133333-68.266667-115.2-145.066667l85.333333-17.066667c12.8 64 46.933333 76.8 59.733333 81.066667 128 42.666667 243.2 93.866667 243.2 251.733333C938.666667 849.066667 908.8 981.333333 512 981.333333z" fill="#777"></path></g></g></svg>