<?xml version="1.0" standalone="no"?><!DOCTYPE svg PUBLIC "-//W3C//DTD SVG 1.1//EN" "http://www.w3.org/Graphics/SVG/1.1/DTD/svg11.dtd"><svg width="200" height="200" viewBox="0 0 200 200" version="1.1" xmlns="http://www.w3.org/2000/svg" xmlns:xlink="http://www.w3.org/1999/xlink"><defs><style type="text/css"><![CDATA[
@font-face { font-family: ifont; src: url("//at.alicdn.com/t/font_1442373896_4754455.eot?#iefix") format("embedded-opentype"), url("//at.alicdn.com/t/font_1442373896_4754455.woff") format("woff"), url("//at.alicdn.com/t/font_1442373896_4754455.ttf") format("truetype"), url("//at.alicdn.com/t/font_1442373896_4754455.svg#ifont") format("svg"); }

]]></style></defs><g class="transform-group"><g transform="scale(0.1953125, 0.1953125)"><path d="M847.927889 64.10297 176.360683 64.10297c-61.697177 0-111.895463 50.190099-111.895463 111.887276l0 671.575392c0 61.690014 50.198286 111.887276 111.895463 111.887276l671.568229 0c61.690014 0 111.887276-50.198286 111.887276-111.887276L959.816189 175.99127C959.816189 114.293069 909.617903 64.10297 847.927889 64.10297zM927.838893 847.566662c0 44.061518-35.849486 79.911004-79.911004 79.911004L176.360683 927.477666c-44.069705 0-79.918167-35.849486-79.918167-79.911004L96.442516 175.99127c0-44.061518 35.849486-79.911004 79.918167-79.911004l671.568229 0c44.061518 0 79.911004 35.849486 79.911004 79.911004L927.839917 847.566662zM427.975305 328.925405 285.758256 328.925405l0 137.869021 461.425138 0L747.183394 328.925405 600.716554 328.925405l0-44.219107 183.79091 0 0-46.729278L241.105267 237.97702l0 46.729278 186.869015 0L427.974281 328.925405zM427.975305 430.151877l-99.365078 0 0-63.965847 99.365078 0L427.975305 430.151877zM604.968391 366.18603l99.364055 0 0 63.965847-99.364055 0L604.968391 366.18603zM472.957799 284.35735l79.953983 0 0 44.567032-79.953983 0L472.957799 284.35735zM470.204082 366.18603l82.7077 0 0 63.965847-82.7077 0L470.204082 366.18603zM286.24535 502.066767l460.697567 0 0 47.944965-460.697567 0 0-47.944965ZM611.239212 687.133739c60.861136 33.535791 108.059088 64.588017 142.216026 94.396927l33.474392-34.653241c-38.503942-30.430056-86.323041-60.860113-143.458319-91.291193L611.239212 687.133739zM784.507464 587.459622 241.105267 587.459622l0 47.012733 256.175497 0 0 86.944188c0 16.147772-9.875928 13.538341-27.263947 13.538341-5.816472 0-39.239699 0.794086-50.365084 0l-2.234901 47.943942 71.417563 0c37.261649 0 55.892985-17.389042 55.892985-51.544957l0-96.880491 239.779062 0L784.506441 587.459622zM391.33378 648.678916c-40.987506 32.293497-91.291193 60.861136-150.910035 85.702917l31.610952 42.044582c60.861136-26.704199 111.784946-57.756425 153.394622-93.77578L391.33378 648.678916z" fill="#9d55b8"></path></g></g></svg>